{"title":"Lucy (2014) 720p Blu-Ray x264 [Dual-Audio][English BD 5.1 + Hind","uid":11626930,"size":979855094,"categoryP":"video","categoryS":"hd___movies","magnet":"?xt=urn:btih:12e1eadf9269eb4528f587c7989d8ae6a5b398d9&amp;dn=Lucy+%282014%29+720p+Blu-Ray+x264+%5BDual-Audio%5D%5BEnglish+BD+5.1+%2B+Hind&amp;tr=udp%3A%2F%2Ftracker.openbittorrent.com%3A80&amp;tr=udp%3A%2F%2Fopen.demonii.com%3A1337&amp;tr=udp%3A%2F%2Ftracker.coppersurfer.tk%3A6969&amp;tr=udp%3A%2F%2Fexodus.desync.com%3A6969","seeders":34,"leechers":20,"uploader":"inovai","files":3,"time":1417634361,"description":"Lucy (2014) 720p Blu-Ray x264 [Dual-Audio][English BD 5.1 + Hindi BD 5.1] - Mafiaking - Team TellyTNT\n\nCover:\n &lt;a href=&quot;\nhttp://forum.primetimeshow.in/viewtopic.php?f=7&amp;t=755&quot; rel=&quot;nofollow&quot; target=&quot;_NEW&quot;&gt;\nhttp://forum.primetimeshow.in/viewtopic.php?f=7&amp;t=755&lt;/a&gt;\n\nScreenshots:\n &lt;a href=&quot;\nhttp://m.primetimeshow.in/share-393F_547F514E.html&quot; rel=&quot;nofollow&quot; target=&quot;_NEW&quot;&gt;\nhttp://m.primetimeshow.in/share-393F_547F514E.html&lt;/a&gt;\n &lt;a href=&quot;\nhttp://m.primetimeshow.in/share-C917_547F514E.html&quot; rel=&quot;nofollow&quot; target=&quot;_NEW&quot;&gt;\nhttp://m.primetimeshow.in/share-C917_547F514E.html&lt;/a&gt;\n &lt;a href=&quot;\nhttp://m.primetimeshow.in/share-CA4D_547F514E.html&quot; rel=&quot;nofollow&quot; target=&quot;_NEW&quot;&gt;\nhttp://m.primetimeshow.in/share-CA4D_547F514E.html&lt;/a&gt;\n &lt;a href=&quot;\nhttp://m.primetimeshow.in/share-AB69_547F514E.html&quot; rel=&quot;nofollow&quot; target=&quot;_NEW&quot;&gt;\nhttp://m.primetimeshow.in/share-AB69_547F514E.html&lt;/a&gt;\n &lt;a href=&quot;\nhttp://m.primetimeshow.in/share-329F_547F514E.html&quot; rel=&quot;nofollow&quot; target=&quot;_NEW&quot;&gt;\nhttp://m.primetimeshow.in/share-329F_547F514E.html&lt;/a&gt;\n\nRatings: 6.5/10\n\nGENRE: Action | Sci-Fi | Thriller\n\n\nGeneral\nUnique ID : 184492558102663122640227966282646081936 (0x8ACBF9664333EE598D8B2A8ECB22D190)\nComplete name : Lucy (2014) 720p Blu-Ray x264 [Dual-Audio][English BD 5.1 + Hindi BD 5.1] - Mafiaking - Team TellyTNT.mkv\nFormat : Matroska\nFormat version : Version 4 / Version 2\nFile size : 926 MiB\nDuration : 1h 29mn\nOverall bit rate : 1 449 Kbps\nMovie name : Lucy (2014) 720p Blu-Ray x264 [Dual-Audio][English BD 5.1 + Hindi BD 5.1] - Mafiaking - Team TellyTNT\nEncoded date : UTC 2014-12-02 20:34:12\nWriting application : mkvmerge v7.0.0 ('Where We Going') 64bit built on Jun 9 2014 15:16:27\nWriting library : libebml v1.3.0 + libmatroska v1.4.1\n\n\nVideo\nID : 1\nFormat : AVC\nFormat/Info : Advanced Video Codec\nFormat profile : &lt;a class=&quot;__cf_email__&quot; href=&quot;/cdn-cgi/l/email-protection&quot; data-cfemail=&quot;642c0d030c2428504a55&quot;&gt;[email&amp;#160;protected]&lt;/a&gt;&lt;script cf-hash='f9e31' type=&quot;text/javascript&quot;&gt;\n/* &lt;![CDATA[ */!function(){try{var t=&quot;currentScript&quot;in document?document.currentScript:function(){for(var t=document.getElementsByTagName(&quot;script&quot;),e=t.length;e--;)if(t[e].getAttribute(&quot;cf-hash&quot;))return t[e]}();if(t&amp;&amp;t.previousSibling){var e,r,n,i,c=t.previousSibling,a=c.getAttribute(&quot;data-cfemail&quot;);if(a){for(e=&quot;&quot;,r=parseInt(a.substr(0,2),16),n=2;a.length-n;n+=2)i=parseInt(a.substr(n,2),16)^r,e+=String.fromCharCode(i);e=document.createTextNode(e),c.parentNode.replaceChild(e,c)}}}catch(u){}}();/* ]]&gt; */&lt;/script&gt;\nFormat settings, CABAC : Yes\nFormat settings, ReFrames : 4 frames\nCodec ID : V_MPEG4/ISO/AVC\nDuration : 1h 29mn\nBit rate : 1 000 Kbps\nWidth : 1 280 pixels\nHeight : 536 pixels\nDisplay aspect ratio : 2.40:1\nFrame rate mode : Constant\nFrame rate : 23.976 fps\nColor space : YUV\nChroma subsampling : 4:2:0\nBit depth : 8 bits\nScan type : Progressive\nBits/(Pixel*Frame) : 0.061\nStream size : 621 MiB (67%)\nTitle : Mafiaking\nLanguage : English\nDefault : Yes\nForced : No\n\n\nAudio #1\nID : 2\nFormat : AC-3\nFormat/Info : Audio Coding 3\nMode extension : CM (complete main)\nFormat settings, Endianness : Big\nCodec ID : A_AC3\nDuration : 1h 29mn\nBit rate mode : Constant\nBit rate : 224 Kbps\nChannel(s) : 6 channels\nChannel positions : Front: L C R, Side: L R, LFE\nSampling rate : 48.0 KHz\nBit depth : 16 bits\nCompression mode : Lossy\nStream size : 143 MiB (15%)\nTitle : Mafiaking\nLanguage : Hindi\nDefault : Yes\nForced : No\n\n\nAudio #2\nID : 3\nFormat : AC-3\nFormat/Info : Audio Coding 3\nMode extension : CM (complete main)\nFormat settings, Endianness : Big\nCodec ID : A_AC3\nDuration : 1h 29mn\nBit rate mode : Constant\nBit rate : 224 Kbps\nChannel(s) : 6 channels\nChannel positions : Front: L C R, Side: L R, LFE\nSampling rate : 48.0 KHz\nBit depth : 16 bits\nCompression mode : Lossy\nStream size : 143 MiB (15%)\nTitle : Mafiaking\nLanguage : English\nDefault : No\nForced : No\n\nThanks to Mafiaking - Team TellyTNT!!\n\nSeed n Enjoy!!\n\n\nSAMPLE WITH IN TORRENT","torrent":{"xt":"urn:btih:12e1eadf9269eb4528f587c7989d8ae6a5b398d9","amp;dn":"Lucy+%282014%29+720p+Blu-Ray+x264+%5BDual-Audio%5D%5BEnglish+BD+5.1+%2B+Hind","amp;tr":["udp%3A%2F%2Ftracker.openbittorrent.com%3A80","udp%3A%2F%2Fopen.demonii.com%3A1337","udp%3A%2F%2Ftracker.coppersurfer.tk%3A6969","udp%3A%2F%2Fexodus.desync.com%3A6969"],"infoHash":"12e1eadf9269eb4528f587c7989d8ae6a5b398d9","infoHashBuffer":{"type":"Buffer","data":[18,225,234,223,146,105,235,69,40,245,135,199,152,157,138,230,165,179,152,217]},"announce":[],"urlList":[]}}